<svg xmlns="http://www.w3.org/2000/svg" xmlns:xlink="http://www.w3.org/1999/xlink" width="500" zoomAndPan="magnify" viewBox="0 0 375 374.999991" height="500" preserveAspectRatio="xMidYMid meet" version="1.0"><defs><g/><clipPath id="4505489686"><path d="M 63.257812 157.316406 L 121 157.316406 L 121 217.316406 L 63.257812 217.316406 Z M 63.257812 157.316406 " clip-rule="nonzero"/></clipPath><clipPath id="881445e2f2"><path d="M 96.433594 185.269531 L 70.65625 185.269531 C 69.65625 185.269531 68.933594 184.324219 69.203125 183.371094 L 76.28125 158.40625 C 76.460938 157.761719 77.054688 157.316406 77.734375 157.316406 L 103.507812 157.316406 C 104.507812 157.316406 105.230469 158.261719 104.960938 159.210938 L 97.886719 184.179688 C 97.703125 184.824219 97.109375 185.269531 96.433594 185.269531 Z M 79.691406 204.113281 L 83.335938 191.257812 C 83.605469 190.304688 82.878906 189.363281 81.882812 189.363281 L 68.628906 189.363281 C 67.953125 189.363281 67.359375 189.808594 67.179688 190.453125 L 63.535156 203.304688 C 63.265625 204.257812 63.988281 205.203125 64.988281 205.203125 L 78.238281 205.203125 C 78.914062 205.203125 79.507812 204.757812 79.691406 204.113281 Z M 86.394531 190.453125 L 79.320312 215.417969 C 79.050781 216.371094 79.773438 217.316406 80.773438 217.316406 L 106.546875 217.316406 C 107.222656 217.316406 107.816406 216.871094 108 216.226562 L 115.078125 191.257812 C 115.347656 190.304688 114.625 189.363281 113.625 189.363281 L 87.847656 189.363281 C 87.171875 189.363281 86.578125 189.808594 86.394531 190.453125 Z M 104.589844 170.515625 L 100.945312 183.371094 C 100.675781 184.324219 101.398438 185.269531 102.398438 185.269531 L 115.648438 185.269531 C 116.328125 185.269531 116.921875 184.824219 117.101562 184.179688 L 120.746094 171.324219 C 121.015625 170.371094 120.292969 169.425781 119.292969 169.425781 L 106.042969 169.425781 C 105.367188 169.425781 104.773438 169.871094 104.589844 170.515625 Z M 104.589844 170.515625 " clip-rule="nonzero"/></clipPath><linearGradient x1="114.296412" gradientTransform="matrix(0.121219, 0, 0, 0.12, 63.477195, 157.315126)" y1="-47.634044" x2="358.611704" gradientUnits="userSpaceOnUse" y2="547.609298" id="c0b5eca47a"><stop stop-opacity="1" stop-color="rgb(0%, 98.799133%, 65.899658%)" offset="0"/><stop stop-opacity="1" stop-color="rgb(0%, 98.799133%, 65.899658%)" offset="0.0625"/><stop stop-opacity="1" stop-color="rgb(0.0213623%, 98.773193%, 65.965271%)" offset="0.09375"/><stop stop-opacity="1" stop-color="rgb(0.100708%, 98.677063%, 66.210938%)" offset="0.101563"/><stop stop-opacity="1" stop-color="rgb(0.216675%, 98.536682%, 66.571045%)" offset="0.109375"/><stop stop-opacity="1" stop-color="rgb(0.332642%, 98.396301%, 66.929626%)" offset="0.117188"/><stop stop-opacity="1" stop-color="rgb(0.448608%, 98.25592%, 67.289734%)" offset="0.125"/><stop stop-opacity="1" stop-color="rgb(0.564575%, 98.117065%, 67.649841%)" offset="0.132813"/><stop stop-opacity="1" stop-color="rgb(0.679016%, 97.976685%, 68.008423%)" offset="0.140625"/><stop stop-opacity="1" stop-color="rgb(0.794983%, 97.836304%, 68.36853%)" offset="0.148438"/><stop stop-opacity="1" stop-color="rgb(0.91095%, 97.695923%, 68.727112%)" offset="0.15625"/><stop stop-opacity="1" stop-color="rgb(1.026917%, 97.555542%, 69.087219%)" offset="0.164063"/><stop stop-opacity="1" stop-color="rgb(1.142883%, 97.415161%, 69.445801%)" offset="0.171875"/><stop stop-opacity="1" stop-color="rgb(1.25885%, 97.27478%, 69.805908%)" offset="0.179688"/><stop stop-opacity="1" stop-color="rgb(1.374817%, 97.135925%, 70.16449%)" offset="0.1875"/><stop stop-opacity="1" stop-color="rgb(1.490784%, 96.995544%, 70.524597%)" offset="0.195313"/><stop stop-opacity="1" stop-color="rgb(1.60675%, 96.855164%, 70.883179%)" offset="0.203125"/><stop stop-opacity="1" stop-color="rgb(1.722717%, 96.714783%, 71.243286%)" offset="0.210938"/><stop stop-opacity="1" stop-color="rgb(1.838684%, 96.574402%, 71.603394%)" offset="0.21875"/><stop stop-opacity="1" stop-color="rgb(1.954651%, 96.434021%, 71.961975%)" offset="0.226563"/><stop stop-opacity="1" stop-color="rgb(2.070618%, 96.29364%, 72.322083%)" offset="0.234375"/><stop stop-opacity="1" stop-color="rgb(2.186584%, 96.153259%, 72.680664%)" offset="0.242188"/><stop stop-opacity="1" stop-color="rgb(2.302551%, 96.014404%, 73.040771%)" offset="0.25"/><stop stop-opacity="1" stop-color="rgb(2.418518%, 95.874023%, 73.399353%)" offset="0.257812"/><stop stop-opacity="1" stop-color="rgb(2.534485%, 95.733643%, 73.75946%)" offset="0.265625"/><stop stop-opacity="1" stop-color="rgb(2.650452%, 95.593262%, 74.118042%)" offset="0.273438"/><stop stop-opacity="1" stop-color="rgb(2.766418%, 95.452881%, 74.478149%)" offset="0.281115"/><stop stop-opacity="1" stop-color="rgb(2.824402%, 95.38269%, 74.658203%)" offset="0.28125"/><stop stop-opacity="1" stop-color="rgb(2.882385%, 95.3125%, 74.836731%)" offset="0.289062"/><stop stop-opacity="1" stop-color="rgb(2.998352%, 95.172119%, 75.196838%)" offset="0.296875"/><stop stop-opacity="1" stop-color="rgb(3.114319%, 95.031738%, 75.556946%)" offset="0.304688"/><stop stop-opacity="1" stop-color="rgb(3.230286%, 94.892883%, 75.915527%)" offset="0.3125"/><stop stop-opacity="1" stop-color="rgb(3.346252%, 94.752502%, 76.275635%)" offset="0.320312"/><stop stop-opacity="1" stop-color="rgb(3.462219%, 94.612122%, 76.634216%)" offset="0.328125"/><stop stop-opacity="1" stop-color="rgb(3.578186%, 94.471741%, 76.994324%)" offset="0.335938"/><stop stop-opacity="1" stop-color="rgb(3.694153%, 94.33136%, 77.352905%)" offset="0.34375"/><stop stop-opacity="1" stop-color="rgb(3.81012%, 94.190979%, 77.713013%)" offset="0.351563"/><stop stop-opacity="1" stop-color="rgb(3.926086%, 94.050598%, 78.071594%)" offset="0.359375"/><stop stop-opacity="1" stop-color="rgb(4.042053%, 93.911743%, 78.431702%)" offset="0.367188"/><stop stop-opacity="1" stop-color="rgb(4.15802%, 93.771362%, 78.790283%)" offset="0.375"/><stop stop-opacity="1" stop-color="rgb(4.273987%, 93.630981%, 79.150391%)" offset="0.382812"/><stop stop-opacity="1" stop-color="rgb(4.389954%, 93.490601%, 79.510498%)" offset="0.390625"/><stop stop-opacity="1" stop-color="rgb(4.50592%, 93.35022%, 79.86908%)" offset="0.398437"/><stop stop-opacity="1" stop-color="rgb(4.621887%, 93.209839%, 80.229187%)" offset="0.40625"/><stop stop-opacity="1" stop-color="rgb(4.737854%, 93.069458%, 80.587769%)" offset="0.414062"/><stop stop-opacity="1" stop-color="rgb(4.853821%, 92.929077%, 80.947876%)" offset="0.421875"/><stop stop-opacity="1" stop-color="rgb(4.969788%, 92.790222%, 81.306458%)" offset="0.429688"/><stop stop-opacity="1" stop-color="rgb(5.085754%, 92.649841%, 81.666565%)" offset="0.4375"/><stop stop-opacity="1" stop-color="rgb(5.201721%, 92.50946%, 82.025146%)" offset="0.445312"/><stop stop-opacity="1" stop-color="rgb(5.317688%, 92.36908%, 82.385254%)" offset="0.453125"/><stop stop-opacity="1" stop-color="rgb(5.433655%, 92.228699%, 82.743835%)" offset="0.460938"/><stop stop-opacity="1" stop-color="rgb(5.549622%, 92.088318%, 83.103943%)" offset="0.46875"/><stop stop-opacity="1" stop-color="rgb(5.665588%, 91.947937%, 83.46405%)" offset="0.476562"/><stop stop-opacity="1" stop-color="rgb(5.781555%, 91.807556%, 83.822632%)" offset="0.484375"/><stop stop-opacity="1" stop-color="rgb(5.897522%, 91.668701%, 84.182739%)" offset="0.492188"/><stop stop-opacity="1" stop-color="rgb(6.013489%, 91.52832%, 84.541321%)" offset="0.5"/><stop stop-opacity="1" stop-color="rgb(6.129456%, 91.387939%, 84.901428%)" offset="0.507812"/><stop stop-opacity="1" stop-color="rgb(6.245422%, 91.247559%, 85.26001%)" offset="0.515625"/><stop stop-opacity="1" stop-color="rgb(6.361389%, 91.107178%, 85.620117%)" offset="0.523438"/><stop stop-opacity="1" stop-color="rgb(6.477356%, 90.966797%, 85.978699%)" offset="0.53125"/><stop stop-opacity="1" stop-color="rgb(6.593323%, 90.826416%, 86.338806%)" offset="0.539062"/><stop stop-opacity="1" stop-color="rgb(6.70929%, 90.687561%, 86.697388%)" offset="0.546875"/><stop stop-opacity="1" stop-color="rgb(6.825256%, 90.54718%, 87.057495%)" offset="0.554687"/><stop stop-opacity="1" stop-color="rgb(6.941223%, 90.406799%, 87.417603%)" offset="0.5625"/><stop stop-opacity="1" stop-color="rgb(7.05719%, 90.266418%, 87.776184%)" offset="0.570312"/><stop stop-opacity="1" stop-color="rgb(7.173157%, 90.126038%, 88.136292%)" offset="0.578125"/><stop stop-opacity="1" stop-color="rgb(7.287598%, 89.985657%, 88.494873%)" offset="0.585938"/><stop stop-opacity="1" stop-color="rgb(7.403564%, 89.845276%, 88.85498%)" offset="0.59375"/><stop stop-opacity="1" stop-color="rgb(7.519531%, 89.704895%, 89.213562%)" offset="0.601562"/><stop stop-opacity="1" stop-color="rgb(7.635498%, 89.56604%, 89.573669%)" offset="0.609375"/><stop stop-opacity="1" stop-color="rgb(7.751465%, 89.425659%, 89.932251%)" offset="0.617188"/><stop stop-opacity="1" stop-color="rgb(7.867432%, 89.285278%, 90.292358%)" offset="0.625"/><stop stop-opacity="1" stop-color="rgb(7.983398%, 89.144897%, 90.65094%)" offset="0.632812"/><stop stop-opacity="1" stop-color="rgb(8.099365%, 89.004517%, 91.011047%)" offset="0.640625"/><stop stop-opacity="1" stop-color="rgb(8.215332%, 88.864136%, 91.371155%)" offset="0.648438"/><stop stop-opacity="1" stop-color="rgb(8.331299%, 88.723755%, 91.729736%)" offset="0.65625"/><stop stop-opacity="1" stop-color="rgb(8.447266%, 88.583374%, 92.089844%)" offset="0.664062"/><stop stop-opacity="1" stop-color="rgb(8.563232%, 88.444519%, 92.448425%)" offset="0.671875"/><stop stop-opacity="1" stop-color="rgb(8.679199%, 88.304138%, 92.808533%)" offset="0.679688"/><stop stop-opacity="1" stop-color="rgb(8.795166%, 88.163757%, 93.167114%)" offset="0.6875"/><stop stop-opacity="1" stop-color="rgb(8.911133%, 88.023376%, 93.527222%)" offset="0.695313"/><stop stop-opacity="1" stop-color="rgb(9.0271%, 87.882996%, 93.885803%)" offset="0.703125"/><stop stop-opacity="1" stop-color="rgb(9.143066%, 87.742615%, 94.245911%)" offset="0.710938"/><stop stop-opacity="1" stop-color="rgb(9.259033%, 87.602234%, 94.604492%)" offset="0.71875"/><stop stop-opacity="1" stop-color="rgb(9.375%, 87.463379%, 94.9646%)" offset="0.718885"/><stop stop-opacity="1" stop-color="rgb(9.432983%, 87.393188%, 95.144653%)" offset="0.726562"/><stop stop-opacity="1" stop-color="rgb(9.490967%, 87.322998%, 95.324707%)" offset="0.734375"/><stop stop-opacity="1" stop-color="rgb(9.606934%, 87.182617%, 95.683289%)" offset="0.742188"/><stop stop-opacity="1" stop-color="rgb(9.7229%, 87.042236%, 96.043396%)" offset="0.75"/><stop stop-opacity="1" stop-color="rgb(9.838867%, 86.901855%, 96.401978%)" offset="0.757812"/><stop stop-opacity="1" stop-color="rgb(9.954834%, 86.761475%, 96.762085%)" offset="0.765625"/><stop stop-opacity="1" stop-color="rgb(10.070801%, 86.621094%, 97.120667%)" offset="0.773438"/><stop stop-opacity="1" stop-color="rgb(10.186768%, 86.480713%, 97.480774%)" offset="0.78125"/><stop stop-opacity="1" stop-color="rgb(10.302734%, 86.341858%, 97.839355%)" offset="0.789062"/><stop stop-opacity="1" stop-color="rgb(10.418701%, 86.201477%, 98.199463%)" offset="0.796875"/><stop stop-opacity="1" stop-color="rgb(10.534668%, 86.061096%, 98.55957%)" offset="0.804687"/><stop stop-opacity="1" stop-color="rgb(10.650635%, 85.920715%, 98.918152%)" offset="0.8125"/><stop stop-opacity="1" stop-color="rgb(10.766602%, 85.780334%, 99.278259%)" offset="0.820312"/><stop stop-opacity="1" stop-color="rgb(10.882568%, 85.639954%, 99.636841%)" offset="0.828125"/><stop stop-opacity="1" stop-color="rgb(10.969543%, 85.534668%, 99.908447%)" offset="0.84375"/><stop stop-opacity="1" stop-color="rgb(10.998535%, 85.499573%, 100%)" offset="0.875"/><stop stop-opacity="1" stop-color="rgb(10.998535%, 85.499573%, 100%)" offset="1"/></linearGradient></defs><g clip-path="url(#4505489686)"><g clip-path="url(#881445e2f2)"><path fill="url(#c0b5eca47a)" d="M 63.265625 157.316406 L 63.265625 217.316406 L 121.007812 217.316406 L 121.007812 157.316406 Z M 63.265625 157.316406 " fill-rule="nonzero"/></g></g><g fill="#1cdaff" fill-opacity="1"><g transform="translate(136.35893, 191.147975)"><g><path d="M 5.578125 -12.296875 C 4.878906 -12.296875 4.296875 -12.515625 3.828125 -12.953125 C 3.359375 -13.390625 3.125 -13.925781 3.125 -14.5625 C 3.125 -15.300781 3.382812 -15.925781 3.90625 -16.4375 C 4.425781 -16.945312 5.054688 -17.203125 5.796875 -17.203125 C 6.492188 -17.203125 7.070312 -16.976562 7.53125 -16.53125 C 7.988281 -16.082031 8.21875 -15.539062 8.21875 -14.90625 C 8.21875 -14.164062 7.960938 -13.546875 7.453125 -13.046875 C 6.941406 -12.546875 6.316406 -12.296875 5.578125 -12.296875 Z M 3.09375 -9.625 L 6.21875 -9.625 L 4.109375 4.90625 L -0.609375 4.90625 Z M 3.09375 -9.625 "/></g></g></g><g fill="#1cdaff" fill-opacity="1"><g transform="translate(145.21367, 191.147975)"><g><path d="M 25.546875 -22.296875 L 21.09375 0 L 16.984375 0 L 18.859375 -9.46875 L 7.328125 -9.46875 L 5.453125 0 L 1.3125 0 L 5.765625 -22.296875 L 9.90625 -22.296875 L 8.09375 -13.15625 L 19.625 -13.15625 L 21.4375 -22.296875 Z M 25.546875 -22.296875 "/></g></g></g><g fill="#1cdaff" fill-opacity="1"><g transform="translate(171.013457, 191.147975)"><g><path d="M 9.171875 -18.828125 L 8.03125 -13.03125 L 18.828125 -13.03125 L 18.15625 -9.625 L 7.328125 -9.625 L 6.109375 -3.46875 L 18.734375 -3.46875 L 18.03125 0 L 1.3125 0 L 5.765625 -22.296875 L 22.046875 -22.296875 L 21.34375 -18.828125 Z M 9.171875 -18.828125 "/></g></g></g><g fill="#1cdaff" fill-opacity="1"><g transform="translate(192.354021, 191.147975)"><g><path d="M 12.390625 -7.609375 L 10.859375 0 L 6.75 0 L 8.3125 -7.90625 L 2.484375 -22.296875 L 6.59375 -22.296875 L 10.984375 -11.40625 L 19.78125 -22.296875 L 24.125 -22.296875 Z M 12.390625 -7.609375 "/></g></g></g><g fill="#1cdaff" fill-opacity="1"><g transform="translate(213.397988, 191.147975)"><g><path d="M 7.515625 -18.796875 L 0.125 -18.796875 L 0.125 -22.296875 L 19.046875 -22.296875 L 19.046875 -18.796875 L 11.65625 -18.796875 L 11.65625 0 L 7.515625 0 Z M 7.515625 -18.796875 "/></g></g></g><g fill="#1cdaff" fill-opacity="1"><g transform="translate(232.572642, 191.147975)"><g><path d="M 19.71875 -3.46875 L 19.71875 0 L 3 0 L 3 -22.296875 L 19.28125 -22.296875 L 19.28125 -18.828125 L 7.140625 -18.828125 L 7.140625 -13.03125 L 17.90625 -13.03125 L 17.90625 -9.625 L 7.140625 -9.625 L 7.140625 -3.46875 Z M 19.71875 -3.46875 "/></g></g></g><g fill="#1cdaff" fill-opacity="1"><g transform="translate(253.913206, 191.147975)"><g><path d="M 13.3125 0.3125 C 11.0625 0.3125 9.023438 -0.175781 7.203125 -1.15625 C 5.390625 -2.144531 3.96875 -3.507812 2.9375 -5.25 C 1.914062 -7 1.40625 -8.96875 1.40625 -11.15625 C 1.40625 -13.34375 1.925781 -15.304688 2.96875 -17.046875 C 4.007812 -18.785156 5.4375 -20.148438 7.25 -21.140625 C 9.0625 -22.128906 11.09375 -22.625 13.34375 -22.625 C 15.175781 -22.625 16.84375 -22.300781 18.34375 -21.65625 C 19.851562 -21.019531 21.128906 -20.097656 22.171875 -18.890625 L 19.5 -16.375 C 17.882812 -18.113281 15.898438 -18.984375 13.546875 -18.984375 C 12.015625 -18.984375 10.640625 -18.648438 9.421875 -17.984375 C 8.210938 -17.316406 7.269531 -16.382812 6.59375 -15.1875 C 5.914062 -14 5.578125 -12.65625 5.578125 -11.15625 C 5.578125 -9.644531 5.914062 -8.296875 6.59375 -7.109375 C 7.269531 -5.921875 8.210938 -4.988281 9.421875 -4.3125 C 10.640625 -3.644531 12.015625 -3.3125 13.546875 -3.3125 C 15.898438 -3.3125 17.882812 -4.191406 19.5 -5.953125 L 22.171875 -3.40625 C 21.128906 -2.195312 19.847656 -1.273438 18.328125 -0.640625 C 16.816406 -0.00390625 15.144531 0.3125 13.3125 0.3125 Z M 13.3125 0.3125 "/></g></g></g><g fill="#1cdaff" fill-opacity="1"><g transform="translate(277.069306, 191.147975)"><g><path d="M 22.8125 -22.296875 L 22.8125 0 L 18.671875 0 L 18.671875 -9.5625 L 7.140625 -9.5625 L 7.140625 0 L 3 0 L 3 -22.296875 L 7.140625 -22.296875 L 7.140625 -13.09375 L 18.671875 -13.09375 L 18.671875 -22.296875 Z M 22.8125 -22.296875 "/></g></g></g><g fill="#1cdaff" fill-opacity="1"><g transform="translate(302.869093, 191.147975)"><g><path d="M 2.109375 -22.296875 L 6.8125 -22.296875 L 6.015625 -7.390625 L 2.875 -7.390625 Z M 4.453125 0.21875 C 3.710938 0.21875 3.097656 -0.015625 2.609375 -0.484375 C 2.117188 -0.960938 1.875 -1.554688 1.875 -2.265625 C 1.875 -2.960938 2.117188 -3.546875 2.609375 -4.015625 C 3.097656 -4.484375 3.710938 -4.71875 4.453125 -4.71875 C 5.179688 -4.71875 5.785156 -4.484375 6.265625 -4.015625 C 6.742188 -3.546875 6.984375 -2.960938 6.984375 -2.265625 C 6.984375 -1.554688 6.742188 -0.960938 6.265625 -0.484375 C 5.785156 -0.015625 5.179688 0.21875 4.453125 0.21875 Z M 4.453125 0.21875 "/></g></g></g><g fill="#00fca8" fill-opacity="1"><g transform="translate(150.079799, 211.720284)"><g><path d="M 5.28125 -2 C 5.28125 -1.34375 5.039062 -0.828125 4.5625 -0.453125 C 4.082031 -0.078125 3.429688 0.109375 2.609375 0.109375 C 1.710938 0.109375 1.023438 -0.00390625 0.546875 -0.234375 L 0.546875 -1.078125 C 0.859375 -0.953125 1.191406 -0.847656 1.546875 -0.765625 C 1.910156 -0.691406 2.273438 -0.65625 2.640625 -0.65625 C 3.210938 -0.65625 3.644531 -0.765625 3.9375 -0.984375 C 4.238281 -1.210938 4.390625 -1.523438 4.390625 -1.921875 C 4.390625 -2.179688 4.335938 -2.394531 4.234375 -2.5625 C 4.128906 -2.726562 3.953125 -2.878906 3.703125 -3.015625 C 3.460938 -3.160156 3.09375 -3.320312 2.59375 -3.5 C 1.894531 -3.75 1.394531 -4.046875 1.09375 -4.390625 C 0.789062 -4.734375 0.640625 -5.179688 0.640625 -5.734375 C 0.640625 -6.304688 0.859375 -6.765625 1.296875 -7.109375 C 1.734375 -7.453125 2.3125 -7.625 3.03125 -7.625 C 3.769531 -7.625 4.453125 -7.488281 5.078125 -7.21875 L 4.8125 -6.453125 C 4.1875 -6.710938 3.582031 -6.84375 3 -6.84375 C 2.539062 -6.84375 2.179688 -6.742188 1.921875 -6.546875 C 1.660156 -6.347656 1.53125 -6.070312 1.53125 -5.71875 C 1.53125 -5.457031 1.578125 -5.242188 1.671875 -5.078125 C 1.765625 -4.910156 1.925781 -4.753906 2.15625 -4.609375 C 2.382812 -4.472656 2.734375 -4.320312 3.203125 -4.15625 C 3.992188 -3.875 4.535156 -3.570312 4.828125 -3.25 C 5.128906 -2.925781 5.28125 -2.507812 5.28125 -2 Z M 5.28125 -2 "/></g></g></g><g fill="#00fca8" fill-opacity="1"><g transform="translate(155.861788, 211.720284)"><g><path d="M 5.765625 -2.828125 C 5.765625 -1.898438 5.53125 -1.175781 5.0625 -0.65625 C 4.601562 -0.144531 3.96875 0.109375 3.15625 0.109375 C 2.65625 0.109375 2.207031 -0.0078125 1.8125 -0.25 C 1.425781 -0.488281 1.125 -0.828125 0.90625 -1.265625 C 0.695312 -1.710938 0.59375 -2.234375 0.59375 -2.828125 C 0.59375 -3.742188 0.820312 -4.457031 1.28125 -4.96875 C 1.738281 -5.476562 2.375 -5.734375 3.1875 -5.734375 C 3.976562 -5.734375 4.601562 -5.472656 5.0625 -4.953125 C 5.53125 -4.429688 5.765625 -3.722656 5.765625 -2.828125 Z M 1.46875 -2.828125 C 1.46875 -2.109375 1.613281 -1.554688 1.90625 -1.171875 C 2.195312 -0.796875 2.617188 -0.609375 3.171875 -0.609375 C 3.734375 -0.609375 4.160156 -0.796875 4.453125 -1.171875 C 4.742188 -1.546875 4.890625 -2.097656 4.890625 -2.828125 C 4.890625 -3.535156 4.742188 -4.078125 4.453125 -4.453125 C 4.160156 -4.828125 3.734375 -5.015625 3.171875 -5.015625 C 2.609375 -5.015625 2.179688 -4.828125 1.890625 -4.453125 C 1.609375 -4.085938 1.46875 -3.546875 1.46875 -2.828125 Z M 1.46875 -2.828125 "/></g></g></g><g fill="#00fca8" fill-opacity="1"><g transform="translate(162.225069, 211.720284)"><g><path d="M 8.09375 0 L 8.09375 -3.671875 C 8.09375 -4.117188 7.992188 -4.453125 7.796875 -4.671875 C 7.609375 -4.898438 7.3125 -5.015625 6.90625 -5.015625 C 6.375 -5.015625 5.976562 -4.859375 5.71875 -4.546875 C 5.46875 -4.242188 5.34375 -3.773438 5.34375 -3.140625 L 5.34375 0 L 4.5 0 L 4.5 -3.671875 C 4.5 -4.117188 4.398438 -4.453125 4.203125 -4.671875 C 4.015625 -4.898438 3.71875 -5.015625 3.3125 -5.015625 C 2.769531 -5.015625 2.375 -4.851562 2.125 -4.53125 C 1.882812 -4.207031 1.765625 -3.679688 1.765625 -2.953125 L 1.765625 0 L 0.90625 0 L 0.90625 -5.640625 L 1.59375 -5.640625 L 1.734375 -4.859375 L 1.78125 -4.859375 C 1.9375 -5.140625 2.160156 -5.351562 2.453125 -5.5 C 2.753906 -5.65625 3.082031 -5.734375 3.4375 -5.734375 C 4.320312 -5.734375 4.898438 -5.414062 5.171875 -4.78125 L 5.21875 -4.78125 C 5.382812 -5.070312 5.625 -5.300781 5.9375 -5.46875 C 6.257812 -5.644531 6.625 -5.734375 7.03125 -5.734375 C 7.664062 -5.734375 8.140625 -5.566406 8.453125 -5.234375 C 8.773438 -4.910156 8.9375 -4.390625 8.9375 -3.671875 L 8.9375 0 Z M 8.09375 0 "/></g></g></g><g fill="#00fca8" fill-opacity="1"><g transform="translate(172.024622, 211.720284)"><g><path d="M 5.765625 -2.828125 C 5.765625 -1.898438 5.53125 -1.175781 5.0625 -0.65625 C 4.601562 -0.144531 3.96875 0.109375 3.15625 0.109375 C 2.65625 0.109375 2.207031 -0.0078125 1.8125 -0.25 C 1.425781 -0.488281 1.125 -0.828125 0.90625 -1.265625 C 0.695312 -1.710938 0.59375 -2.234375 0.59375 -2.828125 C 0.59375 -3.742188 0.820312 -4.457031 1.28125 -4.96875 C 1.738281 -5.476562 2.375 -5.734375 3.1875 -5.734375 C 3.976562 -5.734375 4.601562 -5.472656 5.0625 -4.953125 C 5.53125 -4.429688 5.765625 -3.722656 5.765625 -2.828125 Z M 1.46875 -2.828125 C 1.46875 -2.109375 1.613281 -1.554688 1.90625 -1.171875 C 2.195312 -0.796875 2.617188 -0.609375 3.171875 -0.609375 C 3.734375 -0.609375 4.160156 -0.796875 4.453125 -1.171875 C 4.742188 -1.546875 4.890625 -2.097656 4.890625 -2.828125 C 4.890625 -3.535156 4.742188 -4.078125 4.453125 -4.453125 C 4.160156 -4.828125 3.734375 -5.015625 3.171875 -5.015625 C 2.609375 -5.015625 2.179688 -4.828125 1.890625 -4.453125 C 1.609375 -4.085938 1.46875 -3.546875 1.46875 -2.828125 Z M 1.46875 -2.828125 "/></g></g></g><g fill="#00fca8" fill-opacity="1"><g transform="translate(178.387902, 211.720284)"><g><path d="M 4.546875 -1.53125 C 4.546875 -1.007812 4.347656 -0.601562 3.953125 -0.3125 C 3.566406 -0.03125 3.019531 0.109375 2.3125 0.109375 C 1.5625 0.109375 0.976562 -0.0078125 0.5625 -0.25 L 0.5625 -1.046875 C 0.832031 -0.910156 1.117188 -0.800781 1.421875 -0.71875 C 1.734375 -0.644531 2.035156 -0.609375 2.328125 -0.609375 C 2.773438 -0.609375 3.117188 -0.675781 3.359375 -0.8125 C 3.597656 -0.957031 3.71875 -1.175781 3.71875 -1.46875 C 3.71875 -1.6875 3.617188 -1.875 3.421875 -2.03125 C 3.234375 -2.1875 2.863281 -2.367188 2.3125 -2.578125 C 1.789062 -2.773438 1.421875 -2.945312 1.203125 -3.09375 C 0.984375 -3.238281 0.816406 -3.398438 0.703125 -3.578125 C 0.597656 -3.765625 0.546875 -3.988281 0.546875 -4.25 C 0.546875 -4.707031 0.734375 -5.066406 1.109375 -5.328125 C 1.484375 -5.597656 1.992188 -5.734375 2.640625 -5.734375 C 3.242188 -5.734375 3.835938 -5.613281 4.421875 -5.375 L 4.125 -4.671875 C 3.550781 -4.910156 3.035156 -5.03125 2.578125 -5.03125 C 2.171875 -5.03125 1.863281 -4.960938 1.65625 -4.828125 C 1.457031 -4.703125 1.359375 -4.53125 1.359375 -4.3125 C 1.359375 -4.15625 1.394531 -4.023438 1.46875 -3.921875 C 1.550781 -3.816406 1.675781 -3.710938 1.84375 -3.609375 C 2.019531 -3.515625 2.347656 -3.378906 2.828125 -3.203125 C 3.503906 -2.960938 3.957031 -2.71875 4.1875 -2.46875 C 4.425781 -2.21875 4.546875 -1.90625 4.546875 -1.53125 Z M 4.546875 -1.53125 "/></g></g></g><g fill="#00fca8" fill-opacity="1"><g transform="translate(183.413712, 211.720284)"><g/></g></g><g fill="#00fca8" fill-opacity="1"><g transform="translate(186.150384, 211.720284)"><g><path d="M 2.71875 -0.609375 C 2.875 -0.609375 3.019531 -0.617188 3.15625 -0.640625 C 3.300781 -0.660156 3.414062 -0.679688 3.5 -0.703125 L 3.5 -0.046875 C 3.40625 -0.00390625 3.265625 0.03125 3.078125 0.0625 C 2.898438 0.09375 2.742188 0.109375 2.609375 0.109375 C 1.515625 0.109375 0.96875 -0.46875 0.96875 -1.625 L 0.96875 -4.96875 L 0.15625 -4.96875 L 0.15625 -5.390625 L 0.96875 -5.734375 L 1.328125 -6.9375 L 1.828125 -6.9375 L 1.828125 -5.640625 L 3.453125 -5.640625 L 3.453125 -4.96875 L 1.828125 -4.96875 L 1.828125 -1.65625 C 1.828125 -1.3125 1.90625 -1.050781 2.0625 -0.875 C 2.21875 -0.695312 2.4375 -0.609375 2.71875 -0.609375 Z M 2.71875 -0.609375 "/></g></g></g><g fill="#00fca8" fill-opacity="1"><g transform="translate(189.869587, 211.720284)"><g><path d="M 3.28125 0.109375 C 2.445312 0.109375 1.789062 -0.144531 1.3125 -0.65625 C 0.832031 -1.164062 0.59375 -1.867188 0.59375 -2.765625 C 0.59375 -3.679688 0.816406 -4.40625 1.265625 -4.9375 C 1.710938 -5.46875 2.3125 -5.734375 3.0625 -5.734375 C 3.769531 -5.734375 4.328125 -5.5 4.734375 -5.03125 C 5.148438 -4.570312 5.359375 -3.960938 5.359375 -3.203125 L 5.359375 -2.65625 L 1.46875 -2.65625 C 1.488281 -2 1.65625 -1.5 1.96875 -1.15625 C 2.289062 -0.8125 2.738281 -0.640625 3.3125 -0.640625 C 3.925781 -0.640625 4.523438 -0.765625 5.109375 -1.015625 L 5.109375 -0.265625 C 4.804688 -0.128906 4.519531 -0.0351562 4.25 0.015625 C 3.988281 0.078125 3.664062 0.109375 3.28125 0.109375 Z M 3.046875 -5.03125 C 2.597656 -5.03125 2.238281 -4.878906 1.96875 -4.578125 C 1.695312 -4.285156 1.539062 -3.878906 1.5 -3.359375 L 4.4375 -3.359375 C 4.4375 -3.898438 4.316406 -4.3125 4.078125 -4.59375 C 3.835938 -4.882812 3.492188 -5.03125 3.046875 -5.03125 Z M 3.046875 -5.03125 "/></g></g></g><g fill="#00fca8" fill-opacity="1"><g transform="translate(195.780186, 211.720284)"><g><path d="M 3.15625 0.109375 C 2.34375 0.109375 1.710938 -0.140625 1.265625 -0.640625 C 0.816406 -1.148438 0.59375 -1.863281 0.59375 -2.78125 C 0.59375 -3.726562 0.816406 -4.457031 1.265625 -4.96875 C 1.722656 -5.476562 2.375 -5.734375 3.21875 -5.734375 C 3.488281 -5.734375 3.757812 -5.703125 4.03125 -5.640625 C 4.300781 -5.585938 4.507812 -5.523438 4.65625 -5.453125 L 4.40625 -4.71875 C 4.21875 -4.789062 4.007812 -4.851562 3.78125 -4.90625 C 3.5625 -4.957031 3.363281 -4.984375 3.1875 -4.984375 C 2.039062 -4.984375 1.46875 -4.253906 1.46875 -2.796875 C 1.46875 -2.097656 1.609375 -1.5625 1.890625 -1.1875 C 2.171875 -0.820312 2.585938 -0.640625 3.140625 -0.640625 C 3.609375 -0.640625 4.085938 -0.742188 4.578125 -0.953125 L 4.578125 -0.1875 C 4.203125 0.0078125 3.726562 0.109375 3.15625 0.109375 Z M 3.15625 0.109375 "/></g></g></g><g fill="#00fca8" fill-opacity="1"><g transform="translate(200.795707, 211.720284)"><g><path d="M 4.765625 0 L 4.765625 -3.640625 C 4.765625 -4.097656 4.660156 -4.441406 4.453125 -4.671875 C 4.242188 -4.898438 3.914062 -5.015625 3.46875 -5.015625 C 2.875 -5.015625 2.441406 -4.851562 2.171875 -4.53125 C 1.898438 -4.21875 1.765625 -3.691406 1.765625 -2.953125 L 1.765625 0 L 0.90625 0 L 0.90625 -5.640625 L 1.59375 -5.640625 L 1.734375 -4.859375 L 1.78125 -4.859375 C 1.957031 -5.140625 2.203125 -5.351562 2.515625 -5.5 C 2.828125 -5.65625 3.175781 -5.734375 3.5625 -5.734375 C 4.25 -5.734375 4.757812 -5.566406 5.09375 -5.234375 C 5.4375 -4.910156 5.609375 -4.390625 5.609375 -3.671875 L 5.609375 0 Z M 4.765625 0 "/></g></g></g><g fill="#00fca8" fill-opacity="1"><g transform="translate(207.26187, 211.720284)"><g><path d="M 5.765625 -2.828125 C 5.765625 -1.898438 5.53125 -1.175781 5.0625 -0.65625 C 4.601562 -0.144531 3.96875 0.109375 3.15625 0.109375 C 2.65625 0.109375 2.207031 -0.0078125 1.8125 -0.25 C 1.425781 -0.488281 1.125 -0.828125 0.90625 -1.265625 C 0.695312 -1.710938 0.59375 -2.234375 0.59375 -2.828125 C 0.59375 -3.742188 0.820312 -4.457031 1.28125 -4.96875 C 1.738281 -5.476562 2.375 -5.734375 3.1875 -5.734375 C 3.976562 -5.734375 4.601562 -5.472656 5.0625 -4.953125 C 5.53125 -4.429688 5.765625 -3.722656 5.765625 -2.828125 Z M 1.46875 -2.828125 C 1.46875 -2.109375 1.613281 -1.554688 1.90625 -1.171875 C 2.195312 -0.796875 2.617188 -0.609375 3.171875 -0.609375 C 3.734375 -0.609375 4.160156 -0.796875 4.453125 -1.171875 C 4.742188 -1.546875 4.890625 -2.097656 4.890625 -2.828125 C 4.890625 -3.535156 4.742188 -4.078125 4.453125 -4.453125 C 4.160156 -4.828125 3.734375 -5.015625 3.171875 -5.015625 C 2.609375 -5.015625 2.179688 -4.828125 1.890625 -4.453125 C 1.609375 -4.085938 1.46875 -3.546875 1.46875 -2.828125 Z M 1.46875 -2.828125 "/></g></g></g><g fill="#00fca8" fill-opacity="1"><g transform="translate(213.625151, 211.720284)"><g><path d="M 1.765625 0 L 0.90625 0 L 0.90625 -8 L 1.765625 -8 Z M 1.765625 0 "/></g></g></g><g fill="#00fca8" fill-opacity="1"><g transform="translate(216.289805, 211.720284)"><g><path d="M 5.765625 -2.828125 C 5.765625 -1.898438 5.53125 -1.175781 5.0625 -0.65625 C 4.601562 -0.144531 3.96875 0.109375 3.15625 0.109375 C 2.65625 0.109375 2.207031 -0.0078125 1.8125 -0.25 C 1.425781 -0.488281 1.125 -0.828125 0.90625 -1.265625 C 0.695312 -1.710938 0.59375 -2.234375 0.59375 -2.828125 C 0.59375 -3.742188 0.820312 -4.457031 1.28125 -4.96875 C 1.738281 -5.476562 2.375 -5.734375 3.1875 -5.734375 C 3.976562 -5.734375 4.601562 -5.472656 5.0625 -4.953125 C 5.53125 -4.429688 5.765625 -3.722656 5.765625 -2.828125 Z M 1.46875 -2.828125 C 1.46875 -2.109375 1.613281 -1.554688 1.90625 -1.171875 C 2.195312 -0.796875 2.617188 -0.609375 3.171875 -0.609375 C 3.734375 -0.609375 4.160156 -0.796875 4.453125 -1.171875 C 4.742188 -1.546875 4.890625 -2.097656 4.890625 -2.828125 C 4.890625 -3.535156 4.742188 -4.078125 4.453125 -4.453125 C 4.160156 -4.828125 3.734375 -5.015625 3.171875 -5.015625 C 2.609375 -5.015625 2.179688 -4.828125 1.890625 -4.453125 C 1.609375 -4.085938 1.46875 -3.546875 1.46875 -2.828125 Z M 1.46875 -2.828125 "/></g></g></g><g fill="#00fca8" fill-opacity="1"><g transform="translate(222.653086, 211.720284)"><g><path d="M 5.515625 -5.640625 L 5.515625 -5.09375 L 4.46875 -4.96875 C 4.570312 -4.851562 4.660156 -4.695312 4.734375 -4.5 C 4.804688 -4.3125 4.84375 -4.09375 4.84375 -3.84375 C 4.84375 -3.289062 4.65625 -2.847656 4.28125 -2.515625 C 3.90625 -2.191406 3.382812 -2.03125 2.71875 -2.03125 C 2.550781 -2.03125 2.394531 -2.046875 2.25 -2.078125 C 1.882812 -1.878906 1.703125 -1.632812 1.703125 -1.34375 C 1.703125 -1.1875 1.765625 -1.070312 1.890625 -1 C 2.023438 -0.925781 2.242188 -0.890625 2.546875 -0.890625 L 3.546875 -0.890625 C 4.160156 -0.890625 4.628906 -0.757812 4.953125 -0.5 C 5.285156 -0.25 5.453125 0.117188 5.453125 0.609375 C 5.453125 1.234375 5.195312 1.707031 4.6875 2.03125 C 4.1875 2.363281 3.457031 2.53125 2.5 2.53125 C 1.769531 2.53125 1.203125 2.390625 0.796875 2.109375 C 0.398438 1.835938 0.203125 1.453125 0.203125 0.953125 C 0.203125 0.609375 0.3125 0.3125 0.53125 0.0625 C 0.75 -0.1875 1.054688 -0.351562 1.453125 -0.4375 C 1.304688 -0.507812 1.1875 -0.613281 1.09375 -0.75 C 1 -0.882812 0.953125 -1.039062 0.953125 -1.21875 C 0.953125 -1.425781 1.003906 -1.609375 1.109375 -1.765625 C 1.222656 -1.921875 1.394531 -2.070312 1.625 -2.21875 C 1.332031 -2.332031 1.09375 -2.53125 0.90625 -2.8125 C 0.726562 -3.101562 0.640625 -3.4375 0.640625 -3.8125 C 0.640625 -4.425781 0.820312 -4.898438 1.1875 -5.234375 C 1.5625 -5.566406 2.085938 -5.734375 2.765625 -5.734375 C 3.066406 -5.734375 3.332031 -5.703125 3.5625 -5.640625 Z M 1.015625 0.953125 C 1.015625 1.253906 1.144531 1.484375 1.40625 1.640625 C 1.664062 1.796875 2.035156 1.875 2.515625 1.875 C 3.234375 1.875 3.765625 1.765625 4.109375 1.546875 C 4.453125 1.335938 4.625 1.050781 4.625 0.6875 C 4.625 0.375 4.53125 0.160156 4.34375 0.046875 C 4.15625 -0.0664062 3.800781 -0.125 3.28125 -0.125 L 2.25 -0.125 C 1.863281 -0.125 1.5625 -0.0351562 1.34375 0.140625 C 1.125 0.328125 1.015625 0.597656 1.015625 0.953125 Z M 1.484375 -3.828125 C 1.484375 -3.429688 1.59375 -3.132812 1.8125 -2.9375 C 2.039062 -2.738281 2.351562 -2.640625 2.75 -2.640625 C 3.582031 -2.640625 4 -3.039062 4 -3.84375 C 4 -4.6875 3.578125 -5.109375 2.734375 -5.109375 C 2.335938 -5.109375 2.03125 -5 1.8125 -4.78125 C 1.59375 -4.570312 1.484375 -4.253906 1.484375 -3.828125 Z M 1.484375 -3.828125 "/></g></g></g><g fill="#00fca8" fill-opacity="1"><g transform="translate(228.424787, 211.720284)"><g><path d="M 1.765625 0 L 0.90625 0 L 0.90625 -5.640625 L 1.765625 -5.640625 Z M 1.015625 -6.515625 C 1.179688 -6.722656 1.359375 -6.976562 1.546875 -7.28125 C 1.742188 -7.582031 1.894531 -7.84375 2 -8.0625 L 3.046875 -8.0625 L 3.046875 -7.953125 C 2.890625 -7.734375 2.660156 -7.460938 2.359375 -7.140625 C 2.066406 -6.816406 1.8125 -6.5625 1.59375 -6.375 L 1.015625 -6.375 Z M 1.015625 -6.515625 "/></g></g></g><g fill="#00fca8" fill-opacity="1"><g transform="translate(231.089441, 211.720284)"><g><path d="M 4.375 0 L 4.203125 -0.796875 L 4.15625 -0.796875 C 3.875 -0.441406 3.59375 -0.203125 3.3125 -0.078125 C 3.039062 0.046875 2.691406 0.109375 2.265625 0.109375 C 1.710938 0.109375 1.273438 -0.0351562 0.953125 -0.328125 C 0.640625 -0.617188 0.484375 -1.03125 0.484375 -1.5625 C 0.484375 -2.695312 1.394531 -3.289062 3.21875 -3.34375 L 4.171875 -3.375 L 4.171875 -3.734375 C 4.171875 -4.171875 4.070312 -4.492188 3.875 -4.703125 C 3.6875 -4.921875 3.382812 -5.03125 2.96875 -5.03125 C 2.5 -5.03125 1.96875 -4.882812 1.375 -4.59375 L 1.109375 -5.25 C 1.390625 -5.394531 1.695312 -5.507812 2.03125 -5.59375 C 2.363281 -5.6875 2.695312 -5.734375 3.03125 -5.734375 C 3.695312 -5.734375 4.191406 -5.582031 4.515625 -5.28125 C 4.835938 -4.976562 5 -4.5 5 -3.84375 L 5 0 Z M 2.4375 -0.609375 C 2.96875 -0.609375 3.382812 -0.75 3.6875 -1.03125 C 4 -1.320312 4.15625 -1.734375 4.15625 -2.265625 L 4.15625 -2.765625 L 3.296875 -2.734375 C 2.617188 -2.710938 2.128906 -2.609375 1.828125 -2.421875 C 1.523438 -2.234375 1.375 -1.941406 1.375 -1.546875 C 1.375 -1.234375 1.46875 -1 1.65625 -0.84375 C 1.84375 -0.6875 2.101562 -0.609375 2.4375 -0.609375 Z M 2.4375 -0.609375 "/></g></g></g><g fill="#00fca8" fill-opacity="1"><g transform="translate(236.948598, 211.720284)"><g/></g></g><g fill="#00fca8" fill-opacity="1"><g transform="translate(239.685269, 211.720284)"><g><path d="M 4.375 0 L 4.203125 -0.796875 L 4.15625 -0.796875 C 3.875 -0.441406 3.59375 -0.203125 3.3125 -0.078125 C 3.039062 0.046875 2.691406 0.109375 2.265625 0.109375 C 1.710938 0.109375 1.273438 -0.0351562 0.953125 -0.328125 C 0.640625 -0.617188 0.484375 -1.03125 0.484375 -1.5625 C 0.484375 -2.695312 1.394531 -3.289062 3.21875 -3.34375 L 4.171875 -3.375 L 4.171875 -3.734375 C 4.171875 -4.171875 4.070312 -4.492188 3.875 -4.703125 C 3.6875 -4.921875 3.382812 -5.03125 2.96875 -5.03125 C 2.5 -5.03125 1.96875 -4.882812 1.375 -4.59375 L 1.109375 -5.25 C 1.390625 -5.394531 1.695312 -5.507812 2.03125 -5.59375 C 2.363281 -5.6875 2.695312 -5.734375 3.03125 -5.734375 C 3.695312 -5.734375 4.191406 -5.582031 4.515625 -5.28125 C 4.835938 -4.976562 5 -4.5 5 -3.84375 L 5 0 Z M 2.4375 -0.609375 C 2.96875 -0.609375 3.382812 -0.75 3.6875 -1.03125 C 4 -1.320312 4.15625 -1.734375 4.15625 -2.265625 L 4.15625 -2.765625 L 3.296875 -2.734375 C 2.617188 -2.710938 2.128906 -2.609375 1.828125 -2.421875 C 1.523438 -2.234375 1.375 -1.941406 1.375 -1.546875 C 1.375 -1.234375 1.46875 -1 1.65625 -0.84375 C 1.84375 -0.6875 2.101562 -0.609375 2.4375 -0.609375 Z M 2.4375 -0.609375 "/></g></g></g><g fill="#00fca8" fill-opacity="1"><g transform="translate(245.544426, 211.720284)"><g/></g></g><g fill="#00fca8" fill-opacity="1"><g transform="translate(248.281098, 211.720284)"><g><path d="M 2.71875 -0.609375 C 2.875 -0.609375 3.019531 -0.617188 3.15625 -0.640625 C 3.300781 -0.660156 3.414062 -0.679688 3.5 -0.703125 L 3.5 -0.046875 C 3.40625 -0.00390625 3.265625 0.03125 3.078125 0.0625 C 2.898438 0.09375 2.742188 0.109375 2.609375 0.109375 C 1.515625 0.109375 0.96875 -0.46875 0.96875 -1.625 L 0.96875 -4.96875 L 0.15625 -4.96875 L 0.15625 -5.390625 L 0.96875 -5.734375 L 1.328125 -6.9375 L 1.828125 -6.9375 L 1.828125 -5.640625 L 3.453125 -5.640625 L 3.453125 -4.96875 L 1.828125 -4.96875 L 1.828125 -1.65625 C 1.828125 -1.3125 1.90625 -1.050781 2.0625 -0.875 C 2.21875 -0.695312 2.4375 -0.609375 2.71875 -0.609375 Z M 2.71875 -0.609375 "/></g></g></g><g fill="#00fca8" fill-opacity="1"><g transform="translate(252.000301, 211.720284)"><g><path d="M 1.703125 -5.640625 L 1.703125 -1.984375 C 1.703125 -1.523438 1.804688 -1.179688 2.015625 -0.953125 C 2.222656 -0.722656 2.550781 -0.609375 3 -0.609375 C 3.59375 -0.609375 4.023438 -0.769531 4.296875 -1.09375 C 4.566406 -1.414062 4.703125 -1.941406 4.703125 -2.671875 L 4.703125 -5.640625 L 5.5625 -5.640625 L 5.5625 0 L 4.859375 0 L 4.734375 -0.75 L 4.6875 -0.75 C 4.507812 -0.476562 4.265625 -0.265625 3.953125 -0.109375 C 3.640625 0.0351562 3.285156 0.109375 2.890625 0.109375 C 2.203125 0.109375 1.6875 -0.0507812 1.34375 -0.375 C 1.007812 -0.707031 0.84375 -1.234375 0.84375 -1.953125 L 0.84375 -5.640625 Z M 1.703125 -5.640625 "/></g></g></g><g fill="#00fca8" fill-opacity="1"><g transform="translate(258.466465, 211.720284)"><g/></g></g><g fill="#00fca8" fill-opacity="1"><g transform="translate(261.203136, 211.720284)"><g><path d="M 4.375 0 L 4.203125 -0.796875 L 4.15625 -0.796875 C 3.875 -0.441406 3.59375 -0.203125 3.3125 -0.078125 C 3.039062 0.046875 2.691406 0.109375 2.265625 0.109375 C 1.710938 0.109375 1.273438 -0.0351562 0.953125 -0.328125 C 0.640625 -0.617188 0.484375 -1.03125 0.484375 -1.5625 C 0.484375 -2.695312 1.394531 -3.289062 3.21875 -3.34375 L 4.171875 -3.375 L 4.171875 -3.734375 C 4.171875 -4.171875 4.070312 -4.492188 3.875 -4.703125 C 3.6875 -4.921875 3.382812 -5.03125 2.96875 -5.03125 C 2.5 -5.03125 1.96875 -4.882812 1.375 -4.59375 L 1.109375 -5.25 C 1.390625 -5.394531 1.695312 -5.507812 2.03125 -5.59375 C 2.363281 -5.6875 2.695312 -5.734375 3.03125 -5.734375 C 3.695312 -5.734375 4.191406 -5.582031 4.515625 -5.28125 C 4.835938 -4.976562 5 -4.5 5 -3.84375 L 5 0 Z M 2.4375 -0.609375 C 2.96875 -0.609375 3.382812 -0.75 3.6875 -1.03125 C 4 -1.320312 4.15625 -1.734375 4.15625 -2.265625 L 4.15625 -2.765625 L 3.296875 -2.734375 C 2.617188 -2.710938 2.128906 -2.609375 1.828125 -2.421875 C 1.523438 -2.234375 1.375 -1.941406 1.375 -1.546875 C 1.375 -1.234375 1.46875 -1 1.65625 -0.84375 C 1.84375 -0.6875 2.101562 -0.609375 2.4375 -0.609375 Z M 2.4375 -0.609375 "/></g></g></g><g fill="#00fca8" fill-opacity="1"><g transform="translate(267.062293, 211.720284)"><g><path d="M 1.765625 0 L 0.90625 0 L 0.90625 -8 L 1.765625 -8 Z M 1.765625 0 "/></g></g></g><g fill="#00fca8" fill-opacity="1"><g transform="translate(269.726947, 211.720284)"><g><path d="M 3.15625 0.109375 C 2.34375 0.109375 1.710938 -0.140625 1.265625 -0.640625 C 0.816406 -1.148438 0.59375 -1.863281 0.59375 -2.78125 C 0.59375 -3.726562 0.816406 -4.457031 1.265625 -4.96875 C 1.722656 -5.476562 2.375 -5.734375 3.21875 -5.734375 C 3.488281 -5.734375 3.757812 -5.703125 4.03125 -5.640625 C 4.300781 -5.585938 4.507812 -5.523438 4.65625 -5.453125 L 4.40625 -4.71875 C 4.21875 -4.789062 4.007812 -4.851562 3.78125 -4.90625 C 3.5625 -4.957031 3.363281 -4.984375 3.1875 -4.984375 C 2.039062 -4.984375 1.46875 -4.253906 1.46875 -2.796875 C 1.46875 -2.097656 1.609375 -1.5625 1.890625 -1.1875 C 2.171875 -0.820312 2.585938 -0.640625 3.140625 -0.640625 C 3.609375 -0.640625 4.085938 -0.742188 4.578125 -0.953125 L 4.578125 -0.1875 C 4.203125 0.0078125 3.726562 0.109375 3.15625 0.109375 Z M 3.15625 0.109375 "/></g></g></g><g fill="#00fca8" fill-opacity="1"><g transform="translate(274.742468, 211.720284)"><g><path d="M 4.375 0 L 4.203125 -0.796875 L 4.15625 -0.796875 C 3.875 -0.441406 3.59375 -0.203125 3.3125 -0.078125 C 3.039062 0.046875 2.691406 0.109375 2.265625 0.109375 C 1.710938 0.109375 1.273438 -0.0351562 0.953125 -0.328125 C 0.640625 -0.617188 0.484375 -1.03125 0.484375 -1.5625 C 0.484375 -2.695312 1.394531 -3.289062 3.21875 -3.34375 L 4.171875 -3.375 L 4.171875 -3.734375 C 4.171875 -4.171875 4.070312 -4.492188 3.875 -4.703125 C 3.6875 -4.921875 3.382812 -5.03125 2.96875 -5.03125 C 2.5 -5.03125 1.96875 -4.882812 1.375 -4.59375 L 1.109375 -5.25 C 1.390625 -5.394531 1.695312 -5.507812 2.03125 -5.59375 C 2.363281 -5.6875 2.695312 -5.734375 3.03125 -5.734375 C 3.695312 -5.734375 4.191406 -5.582031 4.515625 -5.28125 C 4.835938 -4.976562 5 -4.5 5 -3.84375 L 5 0 Z M 2.4375 -0.609375 C 2.96875 -0.609375 3.382812 -0.75 3.6875 -1.03125 C 4 -1.320312 4.15625 -1.734375 4.15625 -2.265625 L 4.15625 -2.765625 L 3.296875 -2.734375 C 2.617188 -2.710938 2.128906 -2.609375 1.828125 -2.421875 C 1.523438 -2.234375 1.375 -1.941406 1.375 -1.546875 C 1.375 -1.234375 1.46875 -1 1.65625 -0.84375 C 1.84375 -0.6875 2.101562 -0.609375 2.4375 -0.609375 Z M 2.4375 -0.609375 "/></g></g></g><g fill="#00fca8" fill-opacity="1"><g transform="translate(280.601626, 211.720284)"><g><path d="M 4.765625 0 L 4.765625 -3.640625 C 4.765625 -4.097656 4.660156 -4.441406 4.453125 -4.671875 C 4.242188 -4.898438 3.914062 -5.015625 3.46875 -5.015625 C 2.875 -5.015625 2.441406 -4.851562 2.171875 -4.53125 C 1.898438 -4.21875 1.765625 -3.691406 1.765625 -2.953125 L 1.765625 0 L 0.90625 0 L 0.90625 -5.640625 L 1.59375 -5.640625 L 1.734375 -4.859375 L 1.78125 -4.859375 C 1.957031 -5.140625 2.203125 -5.351562 2.515625 -5.5 C 2.828125 -5.65625 3.175781 -5.734375 3.5625 -5.734375 C 4.25 -5.734375 4.757812 -5.566406 5.09375 -5.234375 C 5.4375 -4.910156 5.609375 -4.390625 5.609375 -3.671875 L 5.609375 0 Z M 4.765625 0 "/></g></g></g><g fill="#00fca8" fill-opacity="1"><g transform="translate(287.067789, 211.720284)"><g><path d="M 3.15625 0.109375 C 2.34375 0.109375 1.710938 -0.140625 1.265625 -0.640625 C 0.816406 -1.148438 0.59375 -1.863281 0.59375 -2.78125 C 0.59375 -3.726562 0.816406 -4.457031 1.265625 -4.96875 C 1.722656 -5.476562 2.375 -5.734375 3.21875 -5.734375 C 3.488281 -5.734375 3.757812 -5.703125 4.03125 -5.640625 C 4.300781 -5.585938 4.507812 -5.523438 4.65625 -5.453125 L 4.40625 -4.71875 C 4.21875 -4.789062 4.007812 -4.851562 3.78125 -4.90625 C 3.5625 -4.957031 3.363281 -4.984375 3.1875 -4.984375 C 2.039062 -4.984375 1.46875 -4.253906 1.46875 -2.796875 C 1.46875 -2.097656 1.609375 -1.5625 1.890625 -1.1875 C 2.171875 -0.820312 2.585938 -0.640625 3.140625 -0.640625 C 3.609375 -0.640625 4.085938 -0.742188 4.578125 -0.953125 L 4.578125 -0.1875 C 4.203125 0.0078125 3.726562 0.109375 3.15625 0.109375 Z M 3.15625 0.109375 "/></g></g></g><g fill="#00fca8" fill-opacity="1"><g transform="translate(292.083311, 211.720284)"><g><path d="M 3.28125 0.109375 C 2.445312 0.109375 1.789062 -0.144531 1.3125 -0.65625 C 0.832031 -1.164062 0.59375 -1.867188 0.59375 -2.765625 C 0.59375 -3.679688 0.816406 -4.40625 1.265625 -4.9375 C 1.710938 -5.46875 2.3125 -5.734375 3.0625 -5.734375 C 3.769531 -5.734375 4.328125 -5.5 4.734375 -5.03125 C 5.148438 -4.570312 5.359375 -3.960938 5.359375 -3.203125 L 5.359375 -2.65625 L 1.46875 -2.65625 C 1.488281 -2 1.65625 -1.5 1.96875 -1.15625 C 2.289062 -0.8125 2.738281 -0.640625 3.3125 -0.640625 C 3.925781 -0.640625 4.523438 -0.765625 5.109375 -1.015625 L 5.109375 -0.265625 C 4.804688 -0.128906 4.519531 -0.0351562 4.25 0.015625 C 3.988281 0.078125 3.664062 0.109375 3.28125 0.109375 Z M 3.046875 -5.03125 C 2.597656 -5.03125 2.238281 -4.878906 1.96875 -4.578125 C 1.695312 -4.285156 1.539062 -3.878906 1.5 -3.359375 L 4.4375 -3.359375 C 4.4375 -3.898438 4.316406 -4.3125 4.078125 -4.59375 C 3.835938 -4.882812 3.492188 -5.03125 3.046875 -5.03125 Z M 3.046875 -5.03125 "/></g></g></g></svg>